<?xml version="1.0" encoding="utf-8"?>
<!-- Generator: Adobe Illustrator 23.0.1, SVG Export Plug-In . SVG Version: 6.00 Build 0)  -->
<svg version="1.1" id="Layer_1" xmlns="http://www.w3.org/2000/svg" xmlns:xlink="http://www.w3.org/1999/xlink" x="0px" y="0px"
	 viewBox="0 0 949 256" style="enable-background:new 0 0 949 256;" xml:space="preserve">
<g>
	<g>
		<path d="M33.5,76.2c0-4,0-7.9,0-11.9c0.3-0.2,0.4-0.6,0.4-0.9c-0.2-1.5,0.6-2.8,0.7-4.2c0-0.4,0.5-0.7,0.5-1.2
			c-0.1-0.9,0.4-1.7,0.7-2.5c0.5-1.3,0.9-2.7,1.6-4c0.5-1,1-2,1.5-2.9c0.7-1.4,1.5-2.7,2.4-3.9c0.9-1.2,1.7-2.4,2.7-3.6
			c1.7-1.9,3.5-3.7,5.4-5.4c1.3-1.2,2.7-2.1,4.1-3.2c1-0.8,2.1-1.3,3.2-2c0.8-0.5,1.6-0.9,2.4-1.3c1.1-0.5,2.2-0.9,3.2-1.4
			c0.8-0.4,1.6-0.5,2.4-0.8c0.9-0.3,1.8-0.5,2.7-0.8c1-0.4,2.1-0.5,3.1-0.8c1.4-0.4,3-0.5,4.4-0.6c1.4-0.1,2.8-0.1,4.2,0
			c2.5,0.1,5-0.1,7.6,0.4c1.4,0.2,2.8,0.5,4.1,0.9c1,0.3,2,0.5,3,0.9c1.2,0.5,2.5,0.8,3.7,1.4c1.4,0.6,2.8,1.3,4.1,2
			c1.7,1,3.4,2,5,3.2c3.2,2.4,6.2,5.1,8.7,8.2c1.3,1.7,2.6,3.4,3.7,5.2c1.4,2.3,2.6,4.8,3.6,7.4c1.2,3.1,2.1,6.4,2.6,9.7
			c0.5,3.5,0.7,7,0.3,10.5c-0.3,3.2-0.8,6.3-1.8,9.3c-0.3,1-0.6,1.9-0.9,2.8c0,0.1-0.1,0.3,0,0.4c0.1,0,0.2,0,0.2,0
			c0.7-0.5,1.6-0.9,2.4-1.3c1-0.5,2-1,3-1.4c1.1-0.5,2.1-1,3.2-1.4c0.8-0.3,1.5-0.6,2.3-0.8c0.8-0.2,1.6-0.5,2.3-0.8
			c0.6-0.2,1.2-0.2,1.7-0.5c1-0.5,2.1-0.8,3.2-0.9c1.1-0.2,2.2-0.8,3.4-0.7c0.1,0,0.1,0,0.2-0.1c0.5-0.3,1.1-0.4,1.7-0.4
			c0.3,0,0.6,0,0.8-0.1c0.9-0.5,1.8-0.4,2.7-0.4c0.5,0,1,0,1.5-0.2c0.4-0.2,0.8-0.2,1.2-0.3c1.1-0.1,2.3-0.1,3.4-0.1
			c0.9,0,1.7,0,2.6-0.2c1.4-0.2,2.8-0.4,4.2-0.2c1.9,0.2,3.7,0.5,5.6,0.4c0.6,0,1.2,0.1,1.8,0.1c1,0,1.8,0.6,2.8,0.5
			c1.6-0.1,3,0.7,4.6,0.6c0.2,0,0.4,0.1,0.5,0.2c1,0.3,1.9,0.6,2.9,0.8c1.1,0.2,2.2,0.5,3.2,0.8c1.3,0.4,2.7,0.8,4,1.4
			c1,0.4,2,0.7,3,1.1c0.5,0.2,1,0.4,1.5,0.7c1,0.5,2,0.9,3,1.4c1.2,0.6,2.4,1.2,3.7,1.8c0.1-0.6-0.4-0.9-0.5-1.4
			c0-1-0.4-1.9-0.8-2.8c-0.5-1.2-0.5-2.5-0.8-3.7c-0.3-1.6-0.5-3.2-0.6-4.8c-0.3-4,0.1-8,0.8-11.9c1-5,2.6-9.7,5.2-14.1
			c8.8-14.8,21.9-22.6,39.2-23.4c3.9-0.2,7.7,0.2,11.5,1.2c15.7,4,26.7,13.5,32.7,28.6c1.8,4.6,2.8,9.5,2.8,14.5
			c0,3.5-0.1,7-0.5,10.4c-0.1,1-0.5,1.9-0.7,2.9c0,0,0,0,0,0.1c-0.6,0.8-0.6,1.8-0.8,2.7c-0.4,1.4-1,2.6-1.4,4c-0.3,1-0.9,2-1.4,3
			c-0.9,1.9-2,3.7-3.2,5.3c-2.2,3.1-4.7,6-7.6,8.5c-2.6,2.3-5.4,4.3-8.5,5.9c-1.8,1-3.6,1.9-5.5,2.5c-0.6,0.2-1.3,0.4-1.9,0.7
			c-0.8,0.4-1.8,0.7-2.7,0.8c-1.3,0.2-2.5,0.9-3.8,0.7c-0.1,0-0.1,0-0.2,0.1c-0.5,0.3-1,0.4-1.5,0.4c-1.5,0-3,0.1-4.4,0.4
			c-0.3,0.1-0.6,0.1-1,0.1c-2.7,0.2-5.3-0.5-7.9-0.6c-0.9,0-1.9-0.4-2.9-0.5c-0.2,0-0.3-0.1-0.5-0.2c-0.4-0.2-0.8-0.3-1.2-0.3
			c-0.5,0-0.9-0.1-1.3-0.4c-0.2-0.2-0.5-0.2-0.9-0.1c1,1.6,1.9,3.3,2.7,4.9c0.4,0.8,0.8,1.7,1.3,2.5c0.6,1,1,2.1,1.4,3.2
			c0.2,0.7,0.5,1.4,0.8,2.1c0.5,1.2,1,2.5,1.4,3.8c0.4,1.3,0.7,2.6,1.1,3.9c0.4,1.4,0.8,2.9,1.1,4.3c0.3,1.2,0.5,2.5,0.7,3.7
			c0.2,1.2-0.1,2.5,0.5,3.7c0.1,0.1,0,0.3,0.1,0.5c0,1.5,0.1,2.9,0.1,4.4c0,1.4,0.4,2.8,0.4,4.3c0,1.2-0.2,2.4-0.4,3.7
			c-0.2,1.5-0.1,2.9-0.1,4.4c0,1.6-0.7,3.1-0.7,4.7c0,0,0,0,0,0.1c-0.7,1.4-0.4,3-0.9,4.5c-0.4,1-0.7,2-0.8,3.1
			c0,0.4-0.4,0.8-0.4,1.2c0,1-0.5,1.9-0.8,2.8c-0.1,0.5-0.3,1-0.5,1.5c-0.3,0.8-0.6,1.5-0.9,2.3c-0.3,0.8-0.6,1.6-0.9,2.4
			c-0.4,1-0.9,1.9-1.4,2.9c-0.6,1.4-1.2,2.8-1.9,4.1c-1.2,2.2-2.5,4.3-3.9,6.4c-1.5,2.2-3.2,4.2-4.8,6.3c-0.9,1.2-2,2.2-3,3.3
			c-1.9,2.2-4,4.1-6.1,6c-1.5,1.4-3.2,2.7-4.9,3.9c-1.4,1-2.6,2-4.1,2.9c-1.5,0.9-3.1,1.8-4.6,2.7c-1.2,0.7-2.5,1.3-3.8,1.9
			c-1,0.5-2,0.9-2.9,1.4c-1.1,0.5-2.2,1-3.3,1.4c-1.3,0.5-2.7,0.9-4,1.4c-1.7,0.6-3.4,1.1-5.1,1.4c-2.2,0.5-4.4,1.1-6.7,1.4
			c-2.1,0.3-4.1,0.7-6.2,0.8c-6.2,0.3-12.4,0.3-18.5-0.8c-3.1-0.5-6.1-1.1-9.1-2c-0.8-0.2-1.6-0.4-2.3-0.6c-1.5-0.5-2.9-1-4.3-1.6
			c-1.5-0.6-3.1-1.1-4.5-1.9c-2.4-1.2-4.9-2.3-7.2-3.8c-1.7-1-3.4-2-5-3.1c-2-1.4-4-2.9-5.9-4.5c-3.2-2.7-6.3-5.5-9-8.8
			c-0.9-1.1-2-2.1-2.9-3.3c-0.8-1.1-1.7-2.2-2.4-3.3c-0.7-1-1.4-1.8-2-2.9c-0.4-0.8-1-1.4-1.4-2.2c-0.4-0.8-0.9-1.6-1.4-2.4
			c-0.5-0.9-0.9-1.8-1.4-2.8c-0.5-0.9-0.9-1.8-1.3-2.7c-0.4-1.1-1-2.1-1.4-3.2c-0.3-0.8-0.6-1.6-0.9-2.4c-0.2-0.8-0.5-1.5-0.8-2.3
			c-0.4-1.2-1-2.3-1-3.6c0-0.1,0-0.2-0.1-0.3c-0.4-0.5-0.4-1.2-0.5-1.8c0-0.3,0-0.6-0.2-0.8c-0.3-0.4-0.3-0.9-0.3-1.3
			c0-0.3,0-0.6-0.1-0.7c-0.5-0.9-0.4-1.8-0.5-2.7c0-0.2,0-0.4-0.1-0.6c-0.5-1-0.4-2.1-0.4-3.2c0-0.4,0.1-0.7-0.1-1.1
			c-0.3-0.6-0.4-1.2-0.4-1.9c0-4.3-0.1-8.7,0-13c0.1-1.9,0.7-3.8,0.7-5.7c0,0,0-0.1,0-0.1c0.5-0.8,0.4-1.7,0.5-2.6
			c0-0.3,0-0.6,0.1-0.8c0.5-1.1,0.5-2.3,0.8-3.4c0.3-1,0.8-2,0.8-3.1c0,0,0-0.1,0-0.1c0.5-1,0.6-2.2,1.1-3.2c0.3-0.7,0.4-1.4,0.8-2
			c0.4-0.7,0.5-1.4,0.8-2.1c0.3-0.7,0.5-1.4,0.8-2c0.6-1.4,1.4-2.7,2-4c0.9-2,2-3.9,3.2-5.7c0.1-0.2,0.3-0.3,0.2-0.5
			c-1.4,0.2-2.7,1-4.1,1c-0.1,0-0.1,0-0.2,0.1c-1.3,0.7-2.8,0.4-4.1,0.9c-2.8-0.1-5.6,0.6-8.5,0.2c-1.9-0.3-3.8,0.1-5.6-0.6
			c-0.8-0.3-1.9,0.1-2.7-0.6c-0.1-0.1-0.2,0-0.3,0c-1.1,0-2-0.7-3.1-0.7c-0.1,0-0.1-0.1-0.2-0.1c-0.7-0.4-1.6-0.6-2.4-0.9
			c-0.7-0.2-1.3-0.5-1.9-0.8c-1.4-0.6-2.8-1.3-4.2-2.1c-1.1-0.6-2.2-1.2-3.2-2c-1.1-0.8-2.2-1.6-3.2-2.5c-2.7-2.2-5.1-4.6-7.2-7.3
			c-1.2-1.5-2.4-3.2-3.3-4.9c-0.4-0.8-0.9-1.6-1.3-2.4c-0.5-1-0.9-2-1.4-3c-0.3-0.6-0.6-1.2-0.7-1.8c-0.2-0.8-0.6-1.6-0.8-2.4
			c-0.3-1.2-0.8-2.4-1-3.7c0-0.2,0-0.5-0.1-0.6c-0.5-0.8-0.4-1.7-0.5-2.5C33.8,77.1,33.8,76.6,33.5,76.2z"/>
	</g>
</g>
<g>
	<path d="M375.6,152.4l-3.5,1.5c-8.3-14-18.4-20.9-30.4-20.9c-4.3,0-8.1,0.7-11.5,2.2c-3.3,1.5-6,3.7-8,6.5c-2,2.8-3.7,5.7-5,8.7
		c-1.3,3-2.2,6.2-2.7,9.7c-0.5,3.5-0.8,6.2-1,8.2c-0.2,2-0.2,4-0.2,6c0,12.6,2.8,23,8.5,31.1c5.6,8.1,14,12.2,24.9,12.2
		c11.6,0,20.8-7,27.4-20.9l3.5,2.5c-1,2.3-1.9,4.2-2.7,5.7c-0.8,1.5-2.4,3.7-4.7,6.7c-2.3,3-4.7,5.5-7.2,7.5c-2.5,2-5.8,3.7-10,5.2
		c-4.2,1.5-8.7,2.2-13.7,2.2c-11.3,0-20.6-4.1-27.9-12.5c-7.3-8.3-11-19.1-11-32.4c0-9,1.7-17.5,5-25.7c3.3-8.1,8.1-14.7,14.2-19.7
		c6.1-5,13-7.5,20.7-7.5c3.3,0,6.8,0.3,10.5,1c3.7,1,5.8,1.5,6.5,1.5c2.3,0,5.3-0.8,9-2.5L375.6,152.4z"/>
	<path d="M415,142.5l19.4,36.9l18.4-34.4c0.3-1,0.5-2.2,0.5-3.5c0-1.7-0.5-3-1.5-4c-1-1-1.8-1.6-2.5-1.7c-0.7-0.2-1.5-0.2-2.5-0.2
		h-4.5V131h31.9v4.5h-3.5c-3.3,0-6.1,1-8.2,3c-2.2,2-4.4,5-6.7,9l-18.9,36.9v26.4c0,2.7,0.8,4.9,2.5,6.7c1.7,1.8,4,2.7,7,2.7h5.5v4
		H409v-4h5.5c3.3,0,5.8-0.9,7.5-2.7c1.7-1.8,2.5-4.1,2.5-6.7v-25.4l-20.9-38.9c-2.7-5-4.7-8.1-6.2-9.2c-1.5-1.2-3.6-1.7-6.2-1.7
		h-4.5V131h38.9v4.5H418c-1,0-2,0.3-3,1c-1,0.7-1.5,1.5-1.5,2.5C413.5,140,414,141.2,415,142.5z"/>
	<path d="M481.3,224.2v-4h6c6,0,9-3.2,9-9.5v-66.3c0-6-3-9-9-9h-6V131h41.9v4.5h-5.5c-6,0-9,3-9,9v66.3c0,6.3,3,9.5,9,9.5h5.5v4
		H481.3z"/>
	<path d="M528.1,131H549l52.8,71.3v-57.8c0-2.7-0.8-4.8-2.5-6.5c-1.7-1.7-3.7-2.5-6-2.5h-4.5V131h29.9v4.5h-4c-2.3,0-4.3,0.8-6,2.5
		c-1.7,1.7-2.5,3.8-2.5,6.5v79.7h-4.5L545.1,146v64.8c0,2.7,0.8,4.9,2.5,6.7c1.7,1.8,3.8,2.7,6.5,2.7h4v4h-29.9v-4h4
		c2.7,0,4.8-0.8,6.5-2.5c1.7-1.7,2.5-4,2.5-7v-66.3c0-2-0.7-4-2.2-6c-1.5-2-3.9-3-7.2-3h-3.5V131z"/>
	<path d="M624.8,224.2v-4h6c6,0,9-3.2,9-9.5v-66.3c0-6-3-9-9-9h-6V131h41.9v4.5h-5.5c-6,0-9,3-9,9v66.3c0,6.3,3,9.5,9,9.5h5.5v4
		H624.8z"/>
	<path d="M671.6,131h20.9l52.8,71.3v-57.8c0-2.7-0.8-4.8-2.5-6.5c-1.7-1.7-3.7-2.5-6-2.5h-4.5V131h29.9v4.5h-4c-2.3,0-4.3,0.8-6,2.5
		c-1.7,1.7-2.5,3.8-2.5,6.5v79.7h-4.5L688.6,146v64.8c0,2.7,0.8,4.9,2.5,6.7c1.7,1.8,3.8,2.7,6.5,2.7h4v4h-29.9v-4h4
		c2.7,0,4.8-0.8,6.5-2.5c1.7-1.7,2.5-4,2.5-7v-66.3c0-2-0.7-4-2.2-6c-1.5-2-3.9-3-7.2-3h-3.5V131z"/>
	<path d="M835.6,129l8,23.9l-4,1.5c-2.7-7-6.6-12.3-11.7-15.9c-5.2-3.7-10.7-5.5-16.7-5.5c-3.7,0-6.9,0.7-9.7,2.2
		c-2.8,1.5-5.2,3.4-7,5.7c-1.8,2.3-3.4,5.1-4.7,8.2c-1.3,3.2-2.3,6.2-3,9c-0.7,2.8-1.2,5.8-1.5,9c-0.3,3.2-0.6,5.5-0.7,7
		c-0.2,1.5-0.2,2.9-0.2,4.2c0,12.6,2.5,23.1,7.5,31.4c5,8.3,11.5,12.5,19.4,12.5c5.3,0,9.4-2,12.2-6c2.8-4,4.2-8.1,4.2-12.5v-7
		c0-2.3-0.6-4.3-1.7-6c-1.2-1.7-2.9-2.5-5.2-2.5h-7v-4.5h35.9v4.5h-3c-1.3,0-2.7,0.7-4,2.2c-1.3,1.5-2,3.1-2,4.7v25.9
		c-2-0.3-4-0.5-6-0.5s-4.8,0.7-8.5,2c-6.6,2.7-12.3,4-16.9,4c-6.3,0-12-1.5-17.2-4.5c-5.2-3-9.2-6.8-12.2-11.5
		c-3-4.6-5.3-9.7-7-15.2c-1.7-5.5-2.5-11.2-2.5-17.2c0-13.6,3.9-25.2,11.7-34.9c7.8-9.6,16.9-14.5,27.2-14.5c3.7,0,7.3,0.5,11,1.5
		c2,0.7,3.7,1,5,1C828.4,131.5,831.9,130.7,835.6,129z"/>
</g>
</svg>
